<?xml version="1.0" standalone="no"?>
<!DOCTYPE svg PUBLIC "-//W3C//DTD SVG 20010904//EN"
 "http://www.w3.org/TR/2001/REC-SVG-20010904/DTD/svg10.dtd">
<svg version="1.0" xmlns="http://www.w3.org/2000/svg"
 width="1500.000000pt" height="500.000000pt" viewBox="0 0 1500.000000 500.000000"
 preserveAspectRatio="xMidYMid meet">

<g transform="translate(0.000000,500.000000) scale(0.100000,-0.100000)"
fill="#000000" stroke="none">
<path d="M1522 4529 c-266 -39 -503 -238 -657 -554 -96 -197 -134 -364 -142
-622 -11 -347 40 -624 163 -882 131 -277 317 -450 551 -512 114 -31 285 -31
373 0 254 88 419 343 421 651 1 83 -3 118 -20 169 -101 297 -492 475 -758 345
-109 -53 -202 -182 -244 -341 -29 -107 -30 -316 -2 -420 11 -40 17 -73 14 -73
-3 0 -28 17 -54 38 -132 105 -238 303 -293 547 -9 41 -18 140 -21 240 -4 159
-3 177 21 270 30 118 104 273 174 365 160 211 352 289 555 223 l48 -15 -41
-35 c-116 -99 -119 -266 -7 -377 68 -67 133 -98 222 -104 217 -14 423 127 472
322 14 60 15 81 5 162 -22 173 -87 299 -222 427 -155 149 -340 207 -558 176z
m288 -715 c14 -30 20 -64 20 -110 0 -59 -3 -68 -29 -95 -24 -24 -38 -29 -75
-29 -66 0 -86 23 -86 98 0 70 32 171 66 207 l25 27 29 -27 c16 -15 38 -48 50
-71z m-307 -1138 c43 -18 111 -94 127 -141 14 -43 9 -164 -10 -229 -18 -60
-59 -96 -110 -96 -74 0 -122 38 -164 130 -35 76 -42 153 -22 222 32 110 94
150 179 114z"/>
<path d="M13960 4529 c-126 -18 -266 -95 -319 -175 -85 -129 -54 -335 69 -454
l51 -50 -218 0 c-153 0 -239 -5 -287 -15 -73 -15 -168 -56 -226 -98 l-35 -25
-43 30 c-216 149 -542 140 -756 -20 l-39 -29 -79 53 c-112 77 -191 99 -343 98
-81 0 -141 -6 -185 -18 -322 -87 -546 -393 -637 -869 -25 -128 -25 -604 -1
-718 21 -99 65 -184 120 -236 57 -51 104 -68 195 -67 133 2 245 79 321 221
134 252 41 649 -169 718 -113 38 -251 5 -326 -78 l-35 -40 7 94 c31 429 211
723 476 780 73 16 194 7 251 -18 55 -25 115 -85 149 -147 20 -39 22 -49 12
-73 -70 -169 -89 -220 -113 -316 -41 -163 -54 -305 -47 -525 8 -274 47 -410
147 -516 68 -72 131 -99 230 -100 126 -1 193 44 251 169 62 133 82 283 83 610
0 259 -10 350 -59 520 -28 98 -88 232 -136 303 -17 24 -27 48 -22 52 42 39
232 58 319 32 63 -18 128 -67 169 -127 l38 -54 -42 -107 c-89 -223 -124 -421
-124 -709 0 -168 4 -217 22 -304 54 -259 172 -384 361 -385 126 -1 193 44 251
169 63 134 83 283 83 615 0 265 -10 356 -59 525 -31 106 -99 251 -149 317 -20
26 -36 49 -36 51 0 11 89 57 147 76 34 11 100 24 147 27 l86 7 0 -897 0 -896
300 0 300 0 0 895 0 895 100 0 100 0 0 65 0 65 -143 0 c-137 0 -144 1 -165 23
-42 44 -18 113 51 149 37 20 56 23 164 23 136 0 158 -9 198 -76 20 -33 20 -54
23 -1036 l2 -1003 70 0 70 0 0 963 c0 542 -5 1005 -10 1061 -19 197 -87 364
-190 467 -101 101 -207 132 -370 108z m-1117 -1341 c18 -148 29 -387 25 -559
-3 -169 -6 -199 -23 -234 -26 -51 -62 -56 -85 -10 -20 40 -27 376 -10 519 16
145 61 336 79 336 4 0 11 -24 14 -52z m-860 -10 c18 -147 29 -386 25 -555 -3
-162 -6 -193 -23 -228 -26 -51 -62 -56 -85 -10 -19 39 -26 348 -11 483 17 147
65 362 81 362 4 0 10 -24 13 -52z m-741 -667 c31 -28 33 -33 33 -96 0 -63 -2
-68 -34 -97 -32 -28 -38 -30 -102 -26 -94 5 -112 23 -117 118 -4 66 -3 71 26
100 28 27 36 30 96 30 58 0 69 -3 98 -29z"/>
<path d="M2410 2890 l0 -960 795 0 795 0 0 960 0 960 -295 0 -295 0 0 -890 0
-890 -200 0 -200 0 0 890 0 890 -300 0 -300 0 0 -960z"/>
<path d="M4130 2890 l0 -960 65 0 65 0 0 895 0 895 65 0 64 0 3 -937 c3 -884
2 -941 -15 -983 -22 -54 -57 -92 -162 -175 -133 -104 -162 -168 -136 -298 17
-78 46 -117 114 -151 49 -25 74 -30 159 -34 58 -3 121 0 151 7 62 14 134 65
194 139 36 44 43 60 43 95 0 74 -21 123 -94 222 -9 11 -18 45 -22 76 -6 55 -5
57 31 98 44 48 142 99 258 132 l77 22 0 894 0 893 100 0 100 0 0 65 0 65 -530
0 -530 0 0 -960z"/>
<path d="M5300 2890 l0 -960 65 0 65 0 0 895 0 895 65 0 65 0 0 -895 0 -895
300 0 300 0 0 895 0 895 100 0 100 0 0 65 0 65 -530 0 -530 0 0 -960z"/>
<path d="M7125 3834 c-197 -44 -372 -180 -490 -380 -130 -220 -166 -409 -146
-762 21 -387 73 -553 207 -671 69 -60 140 -84 249 -84 58 0 105 6 133 16 151
57 247 214 259 423 13 214 -76 401 -228 481 -49 26 -63 28 -159 28 -95 0 -110
-3 -157 -27 -54 -29 -113 -81 -151 -133 l-21 -30 -1 80 c0 265 62 491 161 580
69 62 120 79 229 79 126 0 189 -24 269 -103 144 -142 211 -394 198 -741 -10
-241 -43 -397 -102 -485 -21 -30 -25 -48 -25 -105 l0 -70 430 0 430 0 0 -130
0 -130 295 0 295 0 0 370 c0 366 0 370 20 370 33 0 67 -43 87 -106 15 -48 18
-92 17 -239 -1 -161 -4 -191 -27 -279 -46 -171 -141 -338 -239 -418 -111 -91
-230 -123 -413 -113 -159 9 -256 28 -333 66 -70 34 -102 74 -102 127 l0 32 38
-16 c143 -63 158 -68 227 -68 125 0 195 44 195 124 0 81 -15 85 -122 40 -38
-16 -76 -30 -83 -30 -25 0 -67 44 -124 129 -105 156 -181 205 -316 205 -99 1
-166 -26 -224 -89 -49 -53 -58 -95 -43 -196 33 -225 193 -371 468 -423 221
-42 627 -45 814 -7 249 50 461 157 628 315 180 170 262 361 262 606 0 203 -68
385 -209 563 -66 82 -111 121 -191 163 -49 26 -65 29 -145 29 -72 0 -100 -5
-137 -22 l-48 -22 0 535 0 534 -295 0 -295 0 0 -890 0 -890 -134 0 -134 0 23
63 c67 185 125 692 104 905 -18 170 -86 339 -199 492 -155 207 -335 309 -565
316 -75 3 -132 -1 -180 -12z m-234 -1294 c31 -17 49 -64 49 -129 0 -49 -4 -65
-26 -90 -44 -53 -143 -54 -196 -1 -25 25 -28 35 -28 92 1 69 15 104 51 124 29
16 123 18 150 4z"/>
<path d="M9700 2890 l0 -960 65 0 65 0 0 895 0 895 65 0 64 0 3 -937 c3 -884
2 -941 -15 -983 -22 -54 -57 -92 -162 -175 -133 -104 -162 -168 -136 -298 17
-78 46 -117 114 -151 49 -25 74 -30 159 -34 58 -3 121 0 151 7 62 14 134 65
194 139 36 44 43 60 43 95 0 74 -21 123 -94 222 -9 11 -18 45 -22 76 -6 55 -5
57 31 98 44 48 142 99 258 132 l77 22 0 894 0 893 100 0 100 0 0 65 0 65 -530
0 -530 0 0 -960z"/>
<path d="M11208 1443 c-61 -64 -62 -74 -23 -126 31 -41 53 -57 76 -57 5 0 30
19 54 41 59 54 60 86 6 140 -21 22 -47 39 -58 39 -10 0 -35 -17 -55 -37z"/>
<path d="M12005 1462 c-33 -24 -75 -86 -75 -110 0 -41 69 -107 103 -98 31 7
97 80 97 106 0 10 -15 36 -32 57 -40 46 -49 53 -68 53 -8 0 -20 -4 -25 -8z"/>
<path d="M14035 1462 c-33 -24 -75 -86 -75 -110 0 -41 69 -107 103 -98 31 7
97 80 97 106 0 10 -15 36 -32 57 -40 46 -49 53 -68 53 -8 0 -20 -4 -25 -8z"/>
<path d="M12732 1345 c-52 -23 -72 -78 -72 -205 0 -170 23 -213 121 -226 l49
-7 0 -138 0 -139 -105 0 -105 0 0 280 0 280 -55 0 -55 0 0 -330 0 -330 210 0
210 0 0 330 0 330 -50 0 -50 0 0 -90 c0 -96 -5 -104 -48 -74 -20 14 -22 23
-22 109 0 120 4 125 111 125 130 0 119 36 119 -375 l0 -355 50 0 50 0 0 368
c0 350 -1 368 -20 400 -11 18 -36 40 -55 48 -46 19 -238 19 -283 -1z"/>
<path d="M10492 1183 c-63 -31 -67 -50 -67 -318 0 -207 2 -244 17 -271 23 -43
73 -64 148 -64 120 0 130 22 130 267 0 98 -4 183 -8 189 -21 32 -111 46 -153
24 -17 -10 -19 -7 -19 28 0 21 5 43 12 50 8 8 50 12 125 12 l113 0 0 -285 0
-285 45 0 45 0 0 285 0 285 45 0 45 0 0 50 0 50 -222 0 c-185 0 -229 -3 -256
-17z m113 -413 l0 -145 -30 0 -30 0 -3 134 c-1 74 0 141 3 149 3 8 16 12 32
10 l28 -3 0 -145z"/>
<path d="M11060 1085 c0 -105 -2 -117 -25 -151 -24 -35 -25 -44 -25 -176 0
-159 8 -185 66 -213 28 -13 52 -16 96 -12 116 10 138 47 138 232 l0 126 32 -3
c44 -4 58 -35 58 -125 0 -88 -11 -120 -45 -129 -22 -6 -25 -11 -25 -55 0 -48
1 -49 31 -49 45 0 98 28 114 61 11 21 15 66 15 173 l0 146 -29 32 c-24 27 -36
32 -90 36 l-61 4 0 64 0 64 65 0 65 0 0 45 0 45 -190 0 -190 0 0 -115z m160
-40 l0 -65 -35 0 -35 0 0 65 0 65 35 0 35 0 0 -65z m0 -273 c0 -130 -5 -142
-55 -142 -17 0 -36 5 -43 12 -16 16 -16 220 0 236 7 7 31 12 55 12 l43 0 0
-118z"/>
<path d="M11643 1185 c-63 -27 -68 -51 -68 -325 0 -135 3 -257 8 -272 10 -39
54 -58 131 -58 76 0 109 13 125 47 7 14 11 87 11 179 0 151 -1 156 -25 179
-19 20 -34 25 -78 25 -29 0 -58 -5 -65 -12 -9 -9 -12 4 -12 60 0 88 5 92 128
92 130 0 122 19 122 -303 l0 -267 55 0 55 0 0 285 0 285 34 0 c18 0 38 -6 44
-13 7 -7 12 -99 14 -237 3 -253 10 -279 73 -306 50 -21 144 -18 179 5 64 42
66 51 66 318 l0 241 -27 33 c-34 40 -79 59 -138 59 l-45 0 0 -50 0 -50 38 0
c21 0 43 -5 50 -12 9 -9 12 -74 12 -230 l0 -218 -25 -12 c-18 -8 -35 -9 -53
-2 l-27 9 -5 235 c-6 263 -11 284 -74 314 -19 9 -55 16 -80 16 -45 0 -46 -1
-46 -32 -1 -28 -2 -30 -11 -15 -21 36 -71 47 -206 47 -86 -1 -138 -5 -160 -15z
m102 -445 l0 -115 -35 0 -35 0 -3 104 c-1 58 0 111 3 118 3 9 17 13 37 11 l33
-3 0 -115z"/>
<path d="M13150 865 l0 -335 55 0 55 0 0 280 0 280 50 0 50 0 0 -294 c0 -254
-2 -297 -16 -310 -12 -12 -38 -16 -115 -16 l-99 0 0 -51 0 -51 134 4 c118 3
138 6 163 24 52 39 53 46 53 382 l0 312 30 0 c30 0 30 1 30 55 l0 55 -195 0
-195 0 0 -335z"/>
<path d="M13673 1185 c-63 -27 -68 -51 -68 -325 0 -135 3 -257 8 -272 10 -39
54 -58 131 -58 76 0 109 13 125 47 7 14 11 87 11 179 0 151 -1 156 -25 179
-19 20 -34 25 -78 25 -29 0 -58 -5 -65 -12 -9 -9 -12 4 -12 60 0 88 5 92 128
92 130 0 122 19 122 -303 l0 -267 55 0 55 0 0 285 0 285 34 0 c18 0 38 -6 44
-13 7 -7 12 -99 14 -237 3 -253 10 -279 73 -306 50 -21 144 -18 179 5 64 42
66 51 66 318 l0 241 -27 33 c-34 40 -79 59 -138 59 l-45 0 0 -50 0 -50 38 0
c21 0 43 -5 50 -12 9 -9 12 -74 12 -230 l0 -218 -25 -12 c-18 -8 -35 -9 -53
-2 l-27 9 -5 235 c-6 263 -11 284 -74 314 -19 9 -55 16 -80 16 -45 0 -46 -1
-46 -32 -1 -28 -2 -30 -11 -15 -21 36 -71 47 -206 47 -86 -1 -138 -5 -160 -15z
m102 -445 l0 -115 -35 0 -35 0 -3 104 c-1 58 0 111 3 118 3 9 17 13 37 11 l33
-3 0 -115z"/>
<path d="M880 770 c0 -20 7 -20 4670 -20 4663 0 4670 0 4670 20 0 20 -7 20
-4670 20 -4663 0 -4670 0 -4670 -20z"/>
</g>
</svg>
